<svg id="Layer_1" data-name="Layer 1" xmlns="http://www.w3.org/2000/svg" viewBox="0 0 1503.64 231.66"><defs><style>.cls-1{fill:#fdec00;}.cls-2{fill:#00873c;}.cls-3{fill:#00883c;}.cls-4{fill:#f3e63b;}</style></defs><path class="cls-1" d="M1501,81.13c-6.75,0-13.5.12-20.24-.06-3.21-.08-4.07,1.22-4,4.21.13,9.37.11,18.75,0,28.12,0,5,.4,10-.29,15-1,.67-1.77.07-2.71-.39-17.6-8.77-35.16-7.25-52.65.39-.88.76-2.15.79-3,1.59a48.39,48.39,0,0,0-18.56,19c-7.58,13.47-8.9,28.13-7.59,43.14.86,9.82,3.58,19.22,10.1,26.84,11,12.78,25.09,16.4,41.42,13.67,11.84-2,21.66-7.52,30.39-15.45.56-.51.92-1.61,2.38-1,0,4,.14,8.1,0,12.19-.13,2.56.87,3.19,3.25,3.15,8.38-.12,16.76-.06,25.15-.07V81.88C1503.48,81,1502.19,81.14,1501,81.13Zm-32.17,107.55c-6.71,8.07-14,15.35-24.3,18.68-6.27,2-12.68,3.11-18.5-1.43-3.85-3-4.63-7.57-5.22-11.91-1.46-10.85-1.42-21.64,3-32,5.24-12.4,15.75-16,29.22-15.28,8.75.44,15.49,5.7,22.09,10.88a3.36,3.36,0,0,1,1.17,3c0,2.63,0,5.26,0,7.89C1476,180.56,1473.68,182.81,1468.78,188.68Z" transform="translate(-0.89 -2.04)"/><path class="cls-2" d="M409.81,151c8.64,0,17.29.09,25.93-.06,2.82-.05,3.7.95,3.68,3.69-.08,16.65,0,33.31,0,50a5.22,5.22,0,0,1-1.38,4.12c-9.77,9.55-20.59,17.82-33.83,21.47-11.37,3.14-23,4.52-35.12,2.41-11.63-2-22.18-5.77-31.56-12.75-12.52-9.33-20.15-22-24.43-36.83a96,96,0,0,1-2.24-44.46c3.11-17.18,10-32.17,23.24-43.8a61.66,61.66,0,0,1,33.55-15.13c12.54-1.62,24.95-1.43,37.11,2.26,12.73,3.86,23.06,11.61,32.57,20.6,1.13,1.07,1.34,1.9.18,3.11q-8.43,8.82-16.76,17.72c-1.51,1.6-2.37.31-3.38-.61-5.7-5.27-11.57-10.41-19.1-12.81-13.36-4.27-26.89-4.62-39.27,2.39-10.86,6.14-16.23,16.87-18.35,28.85-2.72,15.3-2.25,30.54,5.27,44.58a33.71,33.71,0,0,0,22.33,17.51,50.82,50.82,0,0,0,32.64-2.39c10.17-4.3,12.06-8.48,10-19.41-.43-2.3-2-1.87-3.39-1.88-7.89,0-15.78-.08-23.67,0-2.43,0-3.66-.46-3.6-3.28.17-7.38.14-14.77,0-22.16,0-2.54,1-3.19,3.32-3.16C392.28,151.09,401.05,151,409.81,151Z" transform="translate(-0.89 -2.04)"/><path class="cls-1" d="M1055.53,188.54c-3-8.54-10.91-10.37-18-13-12.42-4.68-25.45-7.57-37.86-12.33-11.1-4.27-21.39-9.8-28.12-20.1-10.78-16.49-7.81-43.38,14.11-55.2,11.34-6.12,23.4-8.73,36.17-9.14a116.48,116.48,0,0,1,41.88,6.36c6.16,2.12,12.11,4.86,18.17,7.26,1.55.62,2,1.22,1.16,3-3.34,6.94-6.51,14-9.66,21-.95,2.13-1.91,2.61-4.27,1.58-8.63-3.8-17.39-7.39-26.74-9-12.66-2.25-25.32-2.89-37.71,1.56-3.06,1.11-5.83,2.74-7.63,5.72-3.15,5.24-2.17,10.55,2.93,14,8.06,5.44,17.38,7.8,26.52,10.58,11.64,3.54,23.49,6.57,34.24,12.42,11.72,6.37,20.7,14.93,23.67,28.85s-2.85,30.26-14.9,38.63c-9.93,6.9-20.81,10.53-33,12.54a65.56,65.56,0,0,1-7.77.54c-20.31.5-39.45-4.3-57.81-12.61-7.56-3.42-7.58-3.51-4-11,2.5-5.28,5.3-10.42,7.66-15.75,1-2.27,2-2.22,3.9-1.28,8,4.08,16.27,7.57,25,9.43,14.31,3,28.63,3.91,42.71-1.57a14.87,14.87,0,0,0,9.3-10A4.43,4.43,0,0,0,1055.53,188.54Z" transform="translate(-0.89 -2.04)"/><path class="cls-1" d="M1198.4,157.64c0-5.24-.26-10.52-2.72-15.35-6.69-13.11-18.68-18.07-32.18-19.58a96.3,96.3,0,0,0-28.39.79c-11.54,2.15-22.07,6.76-32.24,12.37-1.24.7-1.95,1.55-.88,3,3.55,4.8,7.06,9.64,10.61,14.44.59.8,1.21,1.59,2.44.8,6.14-3.91,13.48-6.07,19.92-8.08a30.29,30.29,0,0,1,5.21-.93,43.44,43.44,0,0,1,15.62-.1c5,.91,9.71,1.68,13.45,5.34,1,1.35,1.06,3,1.56,4.55,0,1.75-.09,3.51,0,5.25.17,2.53-.4,2.95-3.16,2.41-14.3-2.75-28.55-3-42.29,2.8-14.57,6.13-25.74,15.34-27.69,32.28-1.28,11.15,1.45,21.07,11,27.73,13.78,9.67,28.7,10.66,44.24,4.31,5.76-2.34,10.62-6,15.29-9.94.61-.51,1.13-1.57,2.15-1,.76.43.45,1.35.45,2.06,0,2.51.16,5,0,7.5s.69,3.27,3.17,3.22c7-.14,14-.19,21,0,3,.09,3.53-1,3.52-3.66C1198.39,204.47,1198.47,181.05,1198.4,157.64Zm-29.34,31.12c-5.45,8.08-12.8,13.68-21.49,17.75a18.61,18.61,0,0,1-3.83,1.55c-4.91.2-9.76,1.95-14.77.08-2-.74-3-1.66-3.47-3.76-1.51-7.37,2.74-13.77,11-16.68,6-2.11,12.17-2.37,18.39-2.46,4.24-.06,8.48.25,12.72.45C1169.85,185.8,1170.82,186.17,1169.06,188.76Z" transform="translate(-0.89 -2.04)"/><path class="cls-1" d="M1372.63,154.1a6.83,6.83,0,0,0-.31-3.32c-1-11-7.29-18.26-16.72-23.07-13.52-6.89-28.13-6.28-42.5-4.77-12.68,1.34-24.36,6.46-35.44,12.84-2,1.17-2,1.87-.74,3.53,3.29,4.37,6.41,8.87,9.61,13.32,1,1.12,1.9,2.65,3.77,1.3a11,11,0,0,1,1.18-.88c5.82-3.41,12.36-5,18.63-7.19a21.76,21.76,0,0,1,4.51-.76c6.93-.69,12.74-1,19.26,0a8.52,8.52,0,0,1,3.57.89c3.76,2,7.06,4.37,8.32,8.72a12.66,12.66,0,0,1,0,8.18,4.21,4.21,0,0,1-1.46.2,77,77,0,0,0-27.83-1.81c-15.23,1.9-28.51,7.59-38.15,20-7.49,9.7-8.61,28.56-1,38.28,5.34,6.81,12.41,10.52,20.58,12.54a34.39,34.39,0,0,0,7.51,1.45,57.42,57.42,0,0,0,12.16-.94,48.08,48.08,0,0,0,24.62-12.72c1-1,2.46-2.72,3.64-1.77.53.73.18,6.35.3,9.72a6.86,6.86,0,0,0,.25,2.44,1.08,1.08,0,0,0,.23.31,1.71,1.71,0,0,0,.8.44c7.12,0,14.25-.15,21.36.08,3.14.11,3.94-.87,3.92-4C1372.58,202.81,1372.64,178.45,1372.63,154.1Zm-29.33,35.53a45.44,45.44,0,0,1-11,10.88h0a10,10,0,0,1-2.77,1.81c-7.76,4.92-15.88,8.08-25.36,5.92a5.69,5.69,0,0,1-4.51-3.86,10.76,10.76,0,0,1,0-5.29c3-9.77,11.19-12.05,19.73-13.35,7.29-1.1,14.7-.28,22.07-.08,1.09,0,2.43-.21,3,1S1343.92,188.76,1343.3,189.63Z" transform="translate(-0.89 -2.04)"/><path class="cls-3" d="M759,155.17c-3.42-9.92-8.81-18.43-17.46-24.71-12.23-8.88-26.35-9.62-40.26-7.59-18.11,2.65-31.32,13.11-38.91,30-5.17,11.5-6.08,23.54-4.15,36,2.24,14.42,8.61,26.4,20.83,34.57,13.76,9.19,28.9,11.58,45.36,9.27,13.71-1.93,25-7.86,35.5-16.34,1.57-1.29,2.21-2,.42-3.69-4.23-3.9-8.35-7.94-12.43-12-1.51-1.5-2.67-1.68-4.41-.18-7.79,6.73-17.11,9.82-27.19,10.31-13.34.65-24.22-3.84-29-17.49-1.6-4.52-1.55-4.6,3.14-4.6q16.9,0,33.81,0c11.53,0,23.05,0,34.57,0,2,0,3.34-.16,3.38-2.73C762.24,175.57,762.41,165.18,759,155.17Zm-27.8,11c-7-.07-14,0-21,0s-13.77,0-20.65,0c-2.1,0-3.12-.63-2.43-2.87,5.52-18,22.7-22.93,37-15.3,5.86,3.12,8.11,9.18,9.57,15.44C734.21,165.83,733.2,166.23,731.16,166.21Z" transform="translate(-0.89 -2.04)"/><path class="cls-2" d="M570.49,188.68c22.53,0,45.06-.05,67.59.06,3,0,4.19-.87,4.43-3.92a76.4,76.4,0,0,0-3.75-31.35c-4.31-12.33-12-21.68-24.14-27.17-8.35-3.77-17.1-4.14-26-4-5.55.12-10.91.79-16,3.08-1.19.77-2.68.71-3.88,1.46A36,36,0,0,0,555.82,135c-16.52,15.29-20.52,34.5-16.65,55.81,5.36,29.55,27.68,41.36,52.45,42.73a68.07,68.07,0,0,0,37.36-8.9l2.91-1.72c2.66-2.06,5.31-4.14,8-6.18,2.17-1.64,2.39-3.16.19-5.08-4.14-3.63-8.21-7.35-12.14-11.19-1.57-1.54-2.71-1.22-4.12,0-7.45,6.52-16.37,9.54-26,10.21-13.42.95-25.58-3.42-30.2-17.83C566.25,188.74,566.18,188.68,570.49,188.68Zm-3-25.24c2.59-8.51,10.8-18.81,23.78-18.76,13.79,0,20.15,8.12,23.06,18.7.64,2.3-.56,2.83-2.58,2.82-7.13,0-14.27,0-21.41,0-6.89,0-13.78-.05-20.67,0C567.57,166.23,566.81,165.78,567.53,163.44Z" transform="translate(-0.89 -2.04)"/><path class="cls-2" d="M782.48,177.46c0-16.52.09-33.05-.08-49.57,0-3.67,1.13-4.78,4.72-4.65,6.75.25,13.52.18,20.28,0,2.81-.06,3.8.92,3.63,3.7-.19,3.25-.07,6.51,0,9.77,0,.82-.39,1.92.51,2.41s1.5-.58,2.11-1.11c6.47-5.61,13.35-10.69,21.66-13.1,15.78-4.57,31.2-4.63,44.88,6,8,6.26,11.93,15.15,14.27,24.87,1.37,5.67,1.42,11.39,1.43,17.13,0,18-.06,36.06.09,54.09,0,3.4-.88,4.63-4.41,4.48-6.5-.26-13-.24-19.53,0-3.3.11-4.26-1-4.27-4.26-.1-21.64-.36-43.29-.65-64.93-.14-11-7.66-17.24-18.57-15.68a37.5,37.5,0,0,0-19.37,9.21,89.56,89.56,0,0,0-16,18.26,12.41,12.41,0,0,0-2.18,7.35c.1,15.28,0,30.55.12,45.82,0,3.34-1,4.34-4.27,4.23-6.75-.23-13.52-.2-20.28,0-3.13.08-4.11-1-4.09-4.1C782.54,210.76,782.48,194.11,782.48,177.46Z" transform="translate(-0.89 -2.04)"/><path class="cls-2" d="M493.14,137.35c4-3.77,8-7.46,12.81-10.17,9-5,18.6-5.23,28.43-4.68,2.24.13,2.24,1.56,2.12,3.14-.48,6.48-1,13-1.45,19.44-.12,1.75-1.08,2.09-2.52,1.86-13.75-2.2-23,4.52-30.07,15.33-2.26,3.44-4.3,7-6.47,10.53a26.27,26.27,0,0,0-3.9,14.93c.33,13.14,0,26.29.17,39.44,0,3.16-.67,4.48-4.14,4.35-7-.25-14-.16-21,0-2.61,0-3.48-.83-3.47-3.45q.11-50.52,0-101c0-2.78.94-3.78,3.71-3.73,7.13.13,14.27.11,21.41,0,2.58,0,3.6.95,3.49,3.54-.14,3.35,0,6.71,0,10.06Z" transform="translate(-0.89 -2.04)"/><path class="cls-2" d="M235.27,227c-.77-11-1.61-21.86-4.19-32.59C226.36,174.79,218,157,205,141.54c-16.32-19.42-37-32-61.5-38.58-10.05-2.69-20.32-3.81-30.66-4.4A99.4,99.4,0,0,0,91.6,99.85c-3,.54-5.1.92-9.51,2l8,1.08h0c13.2,2.82,25.86,6.67,37.39,14.3s22.29,23,16.62,40.47c-.65,1-.81,2.15-1.55,3.05-.5.72-1,1.43-1.5,2.16-9.74,14.31-23.08,20.35-40.31,17.75-11.8-1.79-21.55-7.51-30.3-15.27a29.1,29.1,0,0,1-2.81-2.51c-3.92-5-8-9.9-10.76-15.72-6.09-12.84-8.2-26.68-9.49-40.57-1.68-18.19-1-36.5-1.63-54.76-.08-2.48.77-3.28,3.34-3.75,6.45-1.16,13-.95,19.44-1.42,19-1.4,37.94-1.31,56.87,1.37,17.1,2.42,33.38,7.19,48.54,15.56C194.74,75,209.88,92,221.46,112.34c1.8,3.18,3.57,6.38,5.35,9.56,1.2-8.14-.05-15.85-1.74-23.49A133.61,133.61,0,0,0,206.64,54c-9.36-14.39-21-26.26-35.68-35.13-13.33-8.06-28.3-11.28-43.35-13.32A417.79,417.79,0,0,0,74.17,2.05c-24.3-.18-48.5,1.76-72.75,2.42V6.73c.12.22.13,49.07,0,51.85,0,18.54-1.19,37.11,0,55.61a157.32,157.32,0,0,0,3,23.28c.43,1.69.94,3.37,1.28,5.08,4.42,22.13,13.62,41.81,29.69,58a43,43,0,0,0,3.65,3.1A92.84,92.84,0,0,0,61,219c18.34,9.55,37.76,13,58,8.88,23.73-4.83,40.63-19.13,52.3-40a10.84,10.84,0,0,0,1.43-3l3.82-6.72a151.42,151.42,0,0,1,5.11,23.65c1.21,8.3,1.67,16.66.11,25-.47,2.53.26,3.86,3.32,3.84q23.28-.17,46.56,0C234.43,230.69,235.46,229.8,235.27,227Z" transform="translate(-0.89 -2.04)"/><path class="cls-4" d="M1345.77,154.67c1.67,2.73,1.34,5.46,0,8.18Q1345.78,158.77,1345.77,154.67Z" transform="translate(-0.89 -2.04)"/><path class="cls-1" d="M1253.32,230.47c-8,.05-16,.07-24,.19-2.13,0-3-.86-2.82-2.92,0-.24,0-.5,0-.75q0-72.51.07-145c7.51,0,15,.1,22.53-.15,3.43-.11,4.49.93,4.47,4.43-.14,24-.06,48.07-.08,72.11S1253.36,206.43,1253.32,230.47Z" transform="translate(-0.89 -2.04)"/></svg>