<svg id="Layer_1" data-name="Layer 1" xmlns="http://www.w3.org/2000/svg" viewBox="0 0 761.34 283.41"><defs><style>.cls-1{fill:#fff;}</style></defs><path class="cls-1" d="M9.28,8a11.68,11.68,0,0,1,3.08-.93Q63.95,7,115.52,7c1.42,0,3-.09,3,1.91s-1.47,2.09-3,2.23c-6.58.59-13.25.76-19.68,2.08-11.34,2.33-17.48,9.42-18.91,20.94A106,106,0,0,0,76.08,47q-.08,60.87,0,121.74a104.07,104.07,0,0,0,.77,12.6c1.35,10.88,7.26,18.24,18.07,20.51a188.9,188.9,0,0,0,24.22,3.1,442.12,442.12,0,0,1,58,8.68c42.6,9.06,84.26,21.63,126,34,23.87,7.06,47.73,14.12,72.14,19.13,17.62,3.61,35.26,4.54,52.9.25,6.39-1.56,12.45-3.94,17.54-8.29a18.34,18.34,0,0,0,6.37-10.33c1.55-7.44-1.57-13.38-8.7-16-7-2.56-14.17-2.49-21.37-1.3-12.71,2.1-25.38,4.39-38.09,6.46-16,2.62-31.67.33-47-4.37a183,183,0,0,1-35-14.93c-1.27-.7-3.44-1.36-2.45-3.26,1.07-2.07,2.72-.31,3.94.33,10.88,5.69,22.19,10.06,34.71,8.72,8.61-.92,17.14-2.62,25.65-4.26,14.45-2.77,28.91-5.29,43.72-4.33,10.6.69,21,2.31,30.79,6.72a44.62,44.62,0,0,1,10.1,6.08c11.52,9.54,11,25.31-.91,34.35-6.8,5.14-14.75,7.6-22.91,9.47a178.94,178.94,0,0,1-34.51,4,462.53,462.53,0,0,1-67.7-2.54,402.65,402.65,0,0,1-88.41-20.34c-21.84-7.71-43.32-16.44-64.95-24.74-18-6.9-36-13.72-55-16.86a206.29,206.29,0,0,0-30-2.78c-23.63-.4-47.28-.11-70.92-.18a15.12,15.12,0,0,1-3.78-1v-2.06a22.28,22.28,0,0,1,3.6-1c5.88-.59,11.85-.66,17.65-1.67,12-2.11,18.4-8.59,20.38-20.44a80.37,80.37,0,0,0,.88-13.35q.1-61.35,0-122.71a114.68,114.68,0,0,0-.75-13.36C49.7,21.83,44.12,15.36,33,13.18c-6.52-1.29-13.28-1.36-19.93-2.07a23,23,0,0,1-3.81-1Z"/><path class="cls-1" d="M277.94,81.51a44.4,44.4,0,0,0,4.33-2.64c6.31-5,12.85-9.69,20.76-11.62,18.69-4.58,36-1.35,51.32,10.49a47.8,47.8,0,0,1,5.56,5.72c2.18,2.35,3,2.39,5.15,0,6-6.46,12.68-11.85,21-15.06,20.67-8,45.51-1,60.19,17,8.71,10.66,13.67,23,15.65,36.49,2.55,17.43,1.39,34.63-4.36,51.38a35.46,35.46,0,0,1-8.72,14.43c-3.89,3.74-8.5,5.64-13.88,4.4-4-.93-7.19-3-8.39-7.41a6.18,6.18,0,0,1,.64-5.13c7.21-12.35,12.56-25.41,14.21-39.73,1.84-16,2.05-32-4.43-47.18-5.15-12.1-13.64-20.5-27-23a35.81,35.81,0,0,0-16.84.7c-9.33,2.7-17,8-23.58,15.07-3,3.23-3.92,6.89-3,11.4a67.65,67.65,0,0,1,1.31,13.55c.14,17.54,0,35.08.08,52.62,0,2.84.16,5.68.42,8.5.71,7.48,4.35,11.43,11.74,12.47,3.73.52,7.53.58,11.3.82,1.42.1,2.9.06,2.8,2.12s-1.63,1.63-2.86,1.63H324.24c-1.25,0-2.76.32-2.82-1.68s1.47-2,2.86-2.07c3.51-.25,7.05-.31,10.52-.83,7.39-1.12,11.33-5.16,12.36-12.46a48.76,48.76,0,0,0,.52-6.93c0-20,.21-39.9-.09-59.84A60.41,60.41,0,0,0,345,88c-3.46-11.26-11.81-17.19-23.31-18.61-16.21-2-29.16,4.36-39.91,16A14.76,14.76,0,0,0,277.89,96c.11,22.61,0,45.22.08,67.84a68,68,0,0,0,.61,9.24c.77,5.58,3.84,9.41,9.54,10.4,4,.71,8.17.87,12.27,1.26.77.07,1.68-.14,2.27.21a3.12,3.12,0,0,1,1.46,2c.05.46-.94,1.15-1.59,1.53-.38.23-1,.06-1.52.06H234.47c-.26,0-.58.1-.76,0-.82-.52-2.14-1-2.29-1.69-.31-1.5.94-2,2.29-2,3.35-.2,6.72-.2,10-.7,9.24-1.41,13.17-5.84,13.72-15.13.11-1.89.14-3.79.14-5.68q0-34.56,0-69.13a55.79,55.79,0,0,0-.46-8.48c-1.25-8-4.82-11.31-12.93-12.15-3.32-.34-6.68-.43-10-.54-1.53,0-2.87-.27-2.81-2.15,0-1.71,1.44-1.63,2.66-1.63,13.58,0,27.16,0,40.75,0,2.32,0,3.27,1,3.2,3.26C277.88,75.15,277.94,77.88,277.94,81.51Z"/><path class="cls-1" d="M649.86,81.5c1.79-1,3-1.57,4-2.32,6.85-5,14-9.46,22.19-11.77,22.74-6.39,53.61.21,68.23,31.83,6.55,14.15,8.38,29.12,7.58,44.52-.56,10.76-1.78,21.46-6.09,31.45A52.08,52.08,0,0,1,738.6,187a13.54,13.54,0,0,1-13.77,5.16,17.06,17.06,0,0,1-5.49-2.56c-2.21-1.41-3.12-1.46-4.44.65-7.44,11.88-11.49,24.74-10.71,38.86A21.91,21.91,0,0,0,711,244.26a16.76,16.76,0,0,0,10.67,4.59,14.66,14.66,0,0,0,3-.48,13.41,13.41,0,0,0-1.49-2c-4.33-3.65-4.1-9.48-2.25-13.21a12.3,12.3,0,0,1,11.84-6.72,12,12,0,0,1,10.64,9.09c2.2,8.42-4,16.86-13.19,18-16.78,2.07-29.85-9.45-30.19-26.36-.25-12.95,3.59-24.67,9.72-35.86,5.11-9.33,10.77-18.47,14.77-28.27,8.41-20.62,10-42.06,4-63.62-4-14.13-12.53-24.57-27.21-28.81-10.23-2.95-20.39-2.27-29.84,2.57-5.83,3-11.21,7-16.53,10.82-3.59,2.61-5,6.48-5,11,.09,23.13,0,46.26.07,69.38a59.82,59.82,0,0,0,.66,9c.83,5.37,3.87,9,9.32,10,4.12.74,8.34.9,12.52,1.31a6.57,6.57,0,0,1,2.52.3,2.64,2.64,0,0,1,1.12,2c0,.49-.84,1.14-1.44,1.43a4.36,4.36,0,0,1-1.78.07H606.53c-.43,0-1,.16-1.27,0a19.77,19.77,0,0,1-2-1.75c.67-.64,1.27-1.75,2-1.83,3.41-.41,6.88-.29,10.27-.81,9.5-1.45,13.4-5.9,13.92-15.5.08-1.63.1-3.27.1-4.9q0-35.08,0-70.16a50.83,50.83,0,0,0-.43-7.71c-1.24-8.13-4.84-11.51-13-12.32-3.33-.34-6.69-.43-10-.54-1.43,0-2.7-.27-2.74-2-.06-1.91,1.45-1.81,2.75-1.81q20.24,0,40.49,0c2.89,0,3.33.52,3.36,3.56C649.88,75.39,649.86,78,649.86,81.5Z"/><path class="cls-1" d="M542,192.53c-20.24-.81-38.64-8.1-52.86-24.25-20.44-23.21-19.49-58.68,1.88-81C518.35,58.69,565.84,58,593.82,85.72a60.34,60.34,0,0,1-4.24,90.06C576.05,186.86,560.38,192.18,542,192.53ZM497.14,129.8a90.29,90.29,0,0,0,3.75,27.78c4.28,13.71,12.22,24.18,26.38,28.8A52.65,52.65,0,0,0,553,187.86c16.69-3,26.92-13.32,32-29,5.38-16.73,5.31-33.83,2.37-51a61.23,61.23,0,0,0-2-8c-6.13-19.4-18.48-29.42-39.22-30.73-19.95-1.27-36.6,6.75-44.34,28.24C498.15,107.55,497.09,118.1,497.14,129.8Z"/><path class="cls-1" d="M124.45,129.77c.2,11,1.61,21.8,6,32,8.66,20.15,25.79,28.69,46.69,26.65,11-1.07,21-4.64,29.22-12.17,10.58-9.69,15.13-21.63,12.41-36-.24-1.25-.91-2.44-1.07-3.69a8.39,8.39,0,0,1,.51-2.64c1,.34,2.47.39,3,1.1a10.11,10.11,0,0,1,1.55,4c2.88,13.83-.91,25.9-10.17,36.23-9.09,10.14-20.91,15.33-34.21,16.65-21,2.07-40-3.35-56.06-17.17-26.14-22.48-27.27-62.64-2.54-87.72,14.94-15.16,33.26-22.49,54.61-21.7,20.89.78,39.63,14.19,45.43,32.72,1.44,4.6,1.87,9.58,2.32,14.42.33,3.57-.75,4.35-4.32,4.41-17.82.27-35.55,1.37-52.94,5.6-3.24.78-6.4,1.93-9.56,3a10.61,10.61,0,0,0-3.42,1.73,16.41,16.41,0,0,0-2.3,3.1,13.32,13.32,0,0,0,3.36,1.36c5,.54,8.27,3.15,9.46,7.74a11.07,11.07,0,0,1-8.52,13.88,11.48,11.48,0,0,1-13.55-10.2c-.73-8.06,2.29-14.25,9.3-18.41s15-5.79,22.78-7.86a144.89,144.89,0,0,0,17.6-5.66c7.19-2.93,12.26-8,12.66-16.34.41-8.8-3.12-15.72-10.6-20.44s-15.87-5.86-24.52-5.34c-24.75,1.48-35.6,17.81-40.14,36.17a62.06,62.06,0,0,0-1.55,8.09C125.29,118.81,124.92,124.29,124.45,129.77Z"/><path class="cls-1" d="M158,9.65c5.05,0,9.94-.24,14.8.08a7.24,7.24,0,0,1,6.74,5.5c1.11,3.75-.41,6.49-3.69,8.74.58.36,1,.63,1.37.83,3.19,1.54,4.38,4.22,4.19,7.59s-1.78,6.08-5.11,7.34a11.37,11.37,0,0,1-3.75.82c-4.78.1-9.57,0-14.55,0ZM162,26V37.43c3.86-.19,7.54-.17,11.16-.61,2.73-.33,4.14-2.39,4.13-5.08s-1.44-4.79-4.12-5.1C169.58,26.22,165.9,26.21,162,26Zm-.12-3.19c3.88-.26,7.54-.34,11.14-.81,2.2-.29,3-2.1,2.91-4.22s-.58-4-2.85-4.28c-3.68-.44-7.4-.47-11.2-.69Z"/><path class="cls-1" d="M273.84,27V40.68H270V9.89c6.39,0,12.72-.3,19,.12,3.42.22,5.63,3.51,6,7.14a7.64,7.64,0,0,1-4.42,8c-1.14.53-2.38.87-3.17,1.16l10,13.85c-3.59,1.36-4.73,1-6.47-1.72-1.33-2.1-2.82-4.12-4-6.31C284.09,26.86,279.55,26,273.84,27Zm.17-3.49c4.35-.2,8.46-.2,12.51-.65A4.74,4.74,0,0,0,290.86,18c0-2.61-1.39-4.66-4.26-4.9-4.13-.33-8.31-.08-12.59-.08Z"/><path class="cls-1" d="M609.05,40.57c-2.66.81-4.25,0-5.68-2.23-4.19-6.59-8.63-13-13-19.51a4.94,4.94,0,0,0-2-1.83v4.48q0,8.11,0,16.23c0,3.37,0,3.37-3.85,2.87V9.72c2.6-.67,4.34-.35,5.89,2.12,4.15,6.61,8.62,13,13,19.51.47.69,1,1.36,1.85,2.58.08-1.41.16-2.22.17-3q0-9.15,0-18.29c0-3.43,0-3.45,3.65-2.93Z"/><path class="cls-1" d="M354.88,23.33l5.65,7.17,1.82-4.29L366,27a23.63,23.63,0,0,1-1.7,4.59c-1.2,1.88-.61,3.09.79,4.4a36.17,36.17,0,0,1,2.61,3l-2.13,2.56-4.76-4.2c-7.29,5.19-13.74,5.13-17.4-.13C340,32.3,341.81,27.5,349,22.74c-1.46-2.73-4.36-5.18-2.93-8.72a9.44,9.44,0,0,1,3.29-4,7.72,7.72,0,0,1,10.32,2C362.05,15.51,360.61,19,354.88,23.33Zm-3.67,1.8c-1.08.79-1.88,1.29-2.59,1.89-2,1.71-3.37,3.69-2.57,6.51a5.72,5.72,0,0,0,4.31,4.34,6.67,6.67,0,0,0,7.09-2.58,2.29,2.29,0,0,0,.16-2.12C355.63,30.49,353.48,27.94,351.21,25.13Zm2.12-13.22a3.47,3.47,0,0,0-3.7,3.41c0,1.75,2.38,5.24,3.57,5.15,1.34-.11,3.73-3.14,3.78-4.8A3.59,3.59,0,0,0,353.33,11.91Z"/><path class="cls-1" d="M667.41,28.44H658V25.13h13c0,3.59,0,7.09-.05,10.58a2.56,2.56,0,0,1-1.13,1.58c-5.18,3.69-10.86,5.07-17.08,3.34-7.16-2-11.37-8.31-10.81-16.42.88-12.58,9.94-17.46,21.11-14.53,4.06,1.07,6.37,4.09,7.23,8.16-2.06,1.24-3.34,1.33-4.48-1.16-1.65-3.61-5.54-5-10.16-4.28-5,.78-8.33,3.68-9.1,8.5a27.71,27.71,0,0,0,0,8.43c.65,4.21,3.49,6.87,7.56,7.9,4.35,1.1,8.79.8,12.09-2.42C667.37,33.66,667,30.9,667.41,28.44Z"/><path class="cls-1" d="M464.17,25.24c.07-8.95,4.9-15.3,12.31-16.2C488,7.66,495.79,16.17,494,28.15c-1.26,8.41-7.81,13.84-15.88,13.19C469.61,40.65,464.1,34.29,464.17,25.24Zm26.1-.21a50.69,50.69,0,0,0-1.11-5.51,10.3,10.3,0,0,0-10.07-7.32c-5,0-8.41,2.23-9.75,7.13a24.92,24.92,0,0,0-.78,9.09A10.29,10.29,0,0,0,479.4,38C485.86,37.84,490.05,32.78,490.27,25Z"/><path class="cls-1" d="M704,9.55h22.24v3.34H707.84c0,3.14-.08,6,.09,8.88,0,.39,1.24,1,1.92,1,4.13.1,8.25,0,12.38,0h2.92v3.44H708v11h19.17v3.46H704Z"/><path class="cls-1" d="M526,9.58h4.26c0,5.87,0,11.6,0,17.34a20.42,20.42,0,0,0,.59,5.86,7.38,7.38,0,0,0,2.78,3.77c5.94,3.74,12.91.11,13.17-6.83.19-5.32.06-10.65.08-16V9.6l3.43-.18c.26.3.46.43.46.56-.11,7.63,0,15.27-.44,22.89-.21,4.25-3,7.07-7.09,7.79a29.43,29.43,0,0,1-9.64-.06,7.82,7.82,0,0,1-6.73-7.52C526.31,25.32,526.28,17.52,526,9.58Z"/><path class="cls-1" d="M239.41,40.63c-4.12.47-4.12.47-5.53-3.18-2.4-6.26-2.4-6.26-8.78-6.26-6.92,0-6.92,0-9.3,6.55-1.25,3.44-1.25,3.44-5.22,2.8l2.93-7.65C216.3,25.6,219.05,18.29,222,11a3.59,3.59,0,0,1,2.43-1.55c1.17-.23,2.46-.37,3.15,1.34,3.86,9.64,7.83,19.24,11.75,28.85A5.19,5.19,0,0,1,239.41,40.63Zm-14.7-27.58L219.5,27.83h10.69C228.33,22.83,226.58,18.12,224.71,13.05Z"/><path class="cls-1" d="M418.13,37.28h15.46v3.4H414.43v-31h3.7Z"/></svg>