<svg id="Layer_1" data-name="Layer 1" xmlns="http://www.w3.org/2000/svg" viewBox="0 0 234.4 228.63"><defs><style>.cls-1{fill:#00873c;}</style></defs><path class="cls-1" d="M235.38,227c-.77-11-1.61-21.86-4.19-32.59-4.72-19.61-13.1-37.41-26.09-52.86-16.32-19.42-37-32-61.5-38.58-10-2.69-20.33-3.81-30.67-4.4a99.26,99.26,0,0,0-21.22,1.29c-3,.54-5.1.92-9.51,2l8,1.08h0c13.21,2.82,25.87,6.67,37.4,14.3s22.29,23,16.62,40.47c-.66,1-.81,2.15-1.55,3.05-.5.72-1,1.43-1.5,2.16-9.74,14.31-23.08,20.35-40.31,17.75-11.8-1.79-21.55-7.51-30.3-15.27a29.1,29.1,0,0,1-2.81-2.51c-3.93-5-8-9.9-10.76-15.72-6.1-12.84-8.21-26.68-9.49-40.57-1.68-18.19-1-36.5-1.63-54.76-.08-2.48.77-3.28,3.34-3.75,6.45-1.16,13-.95,19.43-1.42,19-1.4,38-1.31,56.88,1.37,17.1,2.42,33.37,7.19,48.54,15.56C194.84,75,210,92,221.57,112.34c1.8,3.18,3.57,6.38,5.35,9.56,1.2-8.14,0-15.85-1.75-23.49A133.4,133.4,0,0,0,206.74,54c-9.35-14.39-21-26.26-35.67-35.13-13.33-8.06-28.31-11.28-43.36-13.32A417.63,417.63,0,0,0,74.28,2.05C50,1.87,25.78,3.81,1.53,4.47V6.73c.12.22.13,49.07,0,51.85,0,18.54-1.19,37.11,0,55.61a157.32,157.32,0,0,0,3,23.28c.43,1.69.94,3.37,1.28,5.08,4.41,22.13,13.62,41.81,29.69,58a41.49,41.49,0,0,0,3.65,3.1,92.84,92.84,0,0,0,22,15.36c18.34,9.55,37.76,13,58,8.88,23.73-4.83,40.63-19.13,52.3-40a11.13,11.13,0,0,0,1.43-3l3.82-6.72a151.42,151.42,0,0,1,5.11,23.65c1.21,8.3,1.67,16.66.11,25-.47,2.53.26,3.86,3.32,3.84q23.28-.17,46.56,0C234.53,230.69,235.57,229.8,235.38,227Z" transform="translate(-1 -2.04)"/></svg>