<svg width="115" height="40" viewBox="0 0 115 40" fill="none" xmlns="http://www.w3.org/2000/svg">
<path d="M0.0417108 3.42218H12.9879C21.8563 3.42218 27.1722 8.59368 27.1722 16.1701C27.1722 24.6403 20.493 28.998 12.1636 28.998H8.16416V39.9531H0V3.42218H0.0417108ZM12.4523 21.8719C16.5335 21.8719 18.9263 19.4688 18.9263 16.2118C18.9263 12.6279 16.3701 10.6734 12.2872 10.6734H8.20588V21.832H12.4523V21.8719Z" fill="white"/>
<path d="M32.646 1.81369H40.6866V8.86321H32.646V1.81369ZM32.646 11.9602H40.6866V39.9565H32.646V11.9602Z" fill="white"/>
<path d="M48.915 11.5863H56.9558V21.9363L64.8313 11.5863H74.4786L65.2434 22.7605C65.2434 22.7605 74.2318 26.3479 74.2318 39.9948H66.4397C65.8207 26.6365 56.9975 26.3878 56.9975 26.3878V39.9948H48.9567V11.5863H48.915Z" fill="white"/>
<path d="M80.6436 11.5863H88.6842V39.9948H80.6436V11.5863Z" fill="white"/>
<path d="M96.0898 11.5863H104.131V17.3247C105.779 13.4069 109.161 10.8907 114.767 12.1288L113.202 19.5087C113.202 19.5087 104.132 18.1889 104.132 27.1773V40H96.0898V11.5863Z" fill="white"/>
<path d="M84.6848 8.08242C86.9167 8.08242 88.726 6.27311 88.726 4.04121C88.726 1.80931 86.9167 0 84.6848 0C82.4529 0 80.6436 1.80931 80.6436 4.04121C80.6436 6.27311 82.4529 8.08242 84.6848 8.08242Z" fill="white"/>
</svg>
