<svg width="230" height="80" viewBox="0 0 230 80" fill="none" xmlns="http://www.w3.org/2000/svg">
<path d="M0.0834216 6.84436H25.9757C43.7126 6.84436 54.3444 17.1874 54.3444 32.3402C54.3444 49.2806 40.986 57.996 24.3273 57.996H16.3283V79.9062H0V6.84436H0.0834216ZM24.9046 43.7439C33.067 43.7439 37.8526 38.9376 37.8526 32.4236C37.8526 25.2559 32.7402 21.3468 24.5743 21.3468H16.4118V43.6639H24.9046V43.7439Z" fill="white"/>
<path d="M65.292 3.62738H81.3732V17.7264H65.292V3.62738ZM65.292 23.9204H81.3732V79.9131H65.292V23.9204Z" fill="white"/>
<path d="M97.8301 23.1726H113.912V43.8725L129.663 23.1726H148.957L130.487 45.521C130.487 45.521 148.464 52.6957 148.464 79.9896H132.879C131.641 53.273 113.995 52.7757 113.995 52.7757V79.9896H97.9135V23.1726H97.8301Z" fill="white"/>
<path d="M161.287 23.1726H177.368V79.9896H161.287V23.1726Z" fill="white"/>
<path d="M192.18 23.1726H208.261V34.6494C211.558 26.8139 218.322 21.7815 229.535 24.2577L226.405 39.0175C226.405 39.0175 208.265 36.3779 208.265 54.3547V80H192.18V23.1726Z" fill="white"/>
<path d="M169.37 16.1649C173.833 16.1649 177.452 12.5462 177.452 8.08243C177.452 3.61863 173.833 0 169.37 0C164.906 0 161.287 3.61863 161.287 8.08243C161.287 12.5462 164.906 16.1649 169.37 16.1649Z" fill="white"/>
</svg>
